PathFileType	4	(X/Y/Z)	C:/Users/beibeiliu/ov580/test_trc/User3\sequence.15_training_dense_left.trc
DataRate	CameraRate	NumFrames	NumMarkers	Units	OrigDataRate	OrigDataStartFrame	OrigNumFrames
120	120	11	19	mm	120	88	234
Frame#	Time	ThumbCMC			ThumbMCP			ThumbIP			ThumbTip			IndexMCP			IndexPIP			IndexTip			MiddleMCP			MiddlePIP			MiddleTip			RingMCP			RingPIP			RingTip			PinkyMCP			PinkyPIP			PinkyTip			BackHand1			BackHand2			BackHand3	
		X0	Y0	Z0	X1	Y1	Z1	X2	Y2	Z2	X3	Y3	Z3	X4	Y4	Z4	X5	Y5	Z5	X6	Y6	Z6	X7	Y7	Z7	X8	Y8	Z8	X9	Y9	Z9	X10	Y10	Z10	X11	Y11	Z11	X12	Y12	Z12	X13	Y13	Z13	X14	Y14	Z14	X15	Y15	Z15	X16	Y16	Z16	X17	Y17	Z17	X18	Y18	Z18	
87	0.725	-238.581	-13.4434	-0.408663	-231.755	16.3353	-19.8327	-214.04	33.0466	-35.2411	-191.344	45.5135	-43.8765	-193.97	-6.78679	-63.8379	-183.22	20.8845	-66.3756	-176.592	46.8229	-50.5176	-178.207	-27.3161	-68.6636	-165.84	-9.3433	-87.4444	-149.73	14.959	-99.1718	-159.885	-37.1394	-50.4515	-147.044	-23.8901	-70.5441	-130.064	-4.28298	-84.2954	-148.677	-36.8178	-28.3839	-129.126	-24.2428	-40.3621	-114.869	-9.51318	-48.2693	-186.892	-60.6224	-8.54468	-200.781	-66.4329	18.4414	-223.484	-51.5528	-9.05672	
88	0.733333	-240.4	-13.798	-2.34523	-234.617	12.7658	-20.1426	-220.749	35.0581	-41.9971	-193.987	40.3414	-48.3364	-201.169	-11.7428	-64.4209	-190.12	21.8594	-69.7503	-180.677	41.9595	-55.9154	-180.727	-31.2625	-71.5502	-169.582	-13.459	-91.923	-159.091	9.08824	-106.44	-165.183	-39.285	-51.397	-153.998	-27.4908	-73.254	-137.241	-9.82914	-88.338	-152.937	-38.6916	-32.5338	-137.642	-27.402	-44.3825	-119.884	-13.616	-53.1475	-192.707	-60.7906	-9.1306	-201.092	-66.8898	16.6325	-225.447	-50.1982	-12.038	
89	0.741667	-241.276	-13.8768	-1.80171	-237.248	11.3385	-21.5245	-223.882	30.5439	-42.5197	-205.242	40.8878	-52.0739	-207.03	-13.2924	-66.9636	-195.384	18.0482	-72.6559	-188.636	42.9789	-56.8928	-189.022	-35.3505	-74.2993	-181	-18.2641	-97.1294	-165.69	3.0072	-113.565	-173.615	-41.5981	-57.7307	-159.313	-32.811	-78.8463	-147.349	-14.3787	-95.8858	-155.627	-42.0358	-33.2423	-141.686	-30.0351	-50.3595	-128.016	-14.9027	-64.9187	-192.68	-61.3982	-9.78427	-201.958	-67.1573	17.2842	-229.217	-51.6195	-10.8952	
90	0.75	-246.442	-12.6589	0.692345	-238.529	10.7813	-21.3846	-229.321	32.9576	-45.8194	-207.733	38.7841	-57.8125	-212.914	-17.543	-68.2711	-202.203	12.0525	-77.0624	-191.397	37.7019	-56.9705	-198.392	-38.9984	-71.585	-189.379	-25.8994	-97.1382	-173.934	-1.60741	-119.27	-181.493	-44.6401	-58.0051	-167.685	-36.7745	-83.3312	-150.937	-19.2303	-104.064	-158.088	-43.8343	-40.5961	-149.699	-35.0454	-55.5312	-136.087	-22.4063	-69.8919	-200.418	-59.4725	-11.9981	-202.483	-65.0714	14.977	-234.71	-51.9348	-8.64531	
91	0.758333	-246.912	-11.5174	0.519597	-242.125	13.5065	-21.8516	-232.455	31.7736	-44.2342	-213.817	38.5831	-58.898	-219.782	-14.4682	-71.9357	-206.23	10.8413	-77.6691	-196.199	33.3654	-57.9849	-207.596	-41.6252	-72.8623	-197.417	-27.6234	-103.418	-183.301	-8.40422	-123.952	-185.834	-48.6217	-65.509	-173.802	-42.7574	-85.0727	-160.213	-28.1599	-106.15	-167.638	-46.9961	-40.7586	-152.477	-39.6754	-60.3469	-138.38	-29.6395	-78.43	-203.367	-61.745	-13.9412	-207.014	-65.8518	13.1228	-234.069	-50.2171	-8.54997	
92	0.766667	-245.736	-9.52637	2.3934	-238.98	11.7314	-19.9998	-232.072	29.865	-48.0178	-213.493	34.5364	-63.258	-224.899	-19.7631	-69.0799	-210.642	10.0785	-79.2811	-198.496	28.073	-60.9059	-210.903	-46.1249	-74.6731	-204.107	-33.9896	-102.376	-194.629	-13.3323	-128.671	-191.289	-52.8328	-64.7315	-182.328	-47.163	-90.0725	-174.105	-36.158	-110.803	-171.455	-52.3753	-45.8942	-161.266	-46.6462	-65.3692	-149.368	-37.1136	-86.6543	-203.857	-63.0873	-12.7632	-210.825	-64.2686	17.4457	-234.406	-50.336	-2.60277	
93	0.775	-244.097	-8.00373	2.8454	-238.364	13.8207	-24.3369	-231.162	28.8269	-45.5459	-217.554	38.2544	-65.9476	-233.877	-19.2173	-69.1651	-217.631	8.30927	-80.7154	-201.187	29.4722	-59.5364	-220.436	-45.036	-78.6787	-214.918	-36.5747	-102.736	-201.738	-20.0543	-128.596	-198.005	-54.864	-68.3498	-192.434	-50.785	-89.7421	-184.714	-39.2379	-116.53	-181.297	-54.7814	-49.5215	-170.36	-51.5456	-70.393	-157.908	-44.2109	-91.657	-212.967	-63.0224	-14.2789	-214.268	-61.8705	14.5774	-240.374	-48.9706	-2.94318	
94	0.783333	-242.013	-7.11069	3.95371	-238.326	18.9884	-22.448	-230.009	32.4746	-50.4773	-215.255	35.6069	-66.5406	-236.6	-14.346	-70.8282	-217.395	7.17888	-81.0935	-201.633	26.1928	-63.2899	-229.756	-44.2071	-78.3708	-224.942	-35.2201	-105.408	-210.701	-22.3193	-132.327	-208.095	-55.86	-67.9321	-204.635	-52.6551	-91.1683	-192.786	-45.7091	-119.583	-188.122	-57.4981	-51.6369	-175.261	-58.3675	-69.1378	-166.852	-53.9861	-94.35	-217.341	-60.2103	-13.3335	-217.108	-63.6677	14.8964	-241.504	-46.4495	-2.34215	
95	0.791667	-241.012	-3.17554	3.99604	-234.546	20.6527	-19.6788	-226.714	30.9959	-49.225	-213.734	39.8301	-67.1943	-238.747	-12.3593	-71.6087	-217.345	8.92277	-81.1638	-196.217	24.9143	-62.386	-234.59	-45.0866	-77.236	-233.758	-36.3137	-101.181	-219.713	-23.0729	-131.311	-215.102	-56.8198	-68.1105	-212.411	-54.6149	-90.1337	-204.215	-47.8085	-116.385	-192.935	-62.0304	-49.5948	-184.678	-60.5994	-76.9313	-179.934	-56.1028	-97.2817	-222.179	-63.3651	-15.9986	-221.182	-60.3923	15.2092	-250.115	-40.6888	-2.04219	
96	0.8	-239.265	2.3902	3.33706	-230.284	21.729	-22.2975	-223.143	38.9981	-50.4522	-209.687	39.46	-69.1757	-242.783	-7.8506	-68.3672	-221.818	15.5868	-81.101	-195.119	26.9791	-65.0982	-241.154	-39.4528	-73.0142	-238.89	-32.1185	-103.784	-229.744	-19.0021	-129.511	-227.213	-51.8316	-68.0271	-224.207	-50.5583	-94.4238	-214.728	-44.4548	-118.839	-203.94	-60.4617	-55.7979	-196.759	-59.52	-78.2177	-187.949	-58.7413	-98.5444	-227.356	-60.067	-15.8292	-225.891	-62.5568	12.715	-250.928	-33.0947	1.36086	
97	0.808333	-234.27	6.8249	5.90951	-223.918	27.0693	-19.3167	-215.43	38.0357	-44.6946	-204.337	42.9914	-70.5618	-247.113	0.177611	-64.654	-220.06	20.8662	-80.418	-192.803	29.4315	-66.2	-247.965	-31.9618	-72.6433	-247.942	-20.552	-103.645	-238.066	-6.95374	-129.837	-236.191	-45.9676	-67.3371	-233.611	-46.4304	-93.7703	-226.565	-39.3722	-120.119	-214.271	-58.1574	-56.2814	-210.884	-57.0707	-80.7758	-203.833	-57.003	-103.187	-237.34	-52.9644	-15.3972	-229.034	-57.2066	16.189	-251.584	-28.2968	-0.614083	
